<?xml version="1.0" encoding="UTF-8"?>
<!DOCTYPE svg PUBLIC "-//W3C//DTD SVG 1.1//EN" "http://www.w3.org/Graphics/SVG/1.1/DTD/svg11.dtd">
<!-- Creator: CorelDRAW X7 -->
<svg xmlns="http://www.w3.org/2000/svg" xml:space="preserve" width="210mm" height="297mm" version="1.1" style="shape-rendering:geometricPrecision; text-rendering:geometricPrecision; image-rendering:optimizeQuality; fill-rule:evenodd; clip-rule:evenodd"
viewBox="0 0 21000 29700"
 xmlns:xlink="http://www.w3.org/1999/xlink"
 aria-hidden="true"
 focusable="false"
 data-prefix="far"
 data-icon="envelope"
 role="img">
 <defs>
  <style type="text/css">
   <![CDATA[
    .fil0 {fill:#FCFCFC}
   ]]>
  </style>
 </defs>
 <g id="Camada_x0020_1">
  <metadata id="CorelCorpID_0Corel-Layer"/>
  <path class="fil0" d="M19031 6975l-17062 0c-1088,0 -1969,881 -1969,1969l0 11812c0,1088 881,1969 1969,1969l17062 0c1088,0 1969,-881 1969,-1969l0 -11812c0,-1088 -881,-1969 -1969,-1969zm0 1969l0 1673c-919,749 -2386,1914 -5520,4368 -691,543 -2059,1849 -3011,1834 -952,15 -2321,-1291 -3011,-1834 -3134,-2454 -4600,-3619 -5520,-4368l0 -1673 17062 0zm-17062 11812l0 -7612c940,748 2272,1799 4304,3389 896,706 2466,2264 4227,2254 1752,10 3302,-1525 4227,-2253 2031,-1591 3364,-2642 4304,-3390l0 7612 -17062 0z"/>
 </g>
</svg>
