<?xml version="1.0" encoding="utf-8"?>
<!-- Svg Vector Icons : http://www.onlinewebfonts.com/icon -->
<!DOCTYPE svg PUBLIC "-//W3C//DTD SVG 1.1//EN" "http://www.w3.org/Graphics/SVG/1.1/DTD/svg11.dtd">
<svg version="1.1" xmlns="http://www.w3.org/2000/svg" xmlns:xlink="http://www.w3.org/1999/xlink" x="0px" y="0px" viewBox="0 0 1000 1000" enable-background="new 0 0 1000 1000" xml:space="preserve">
<metadata> Svg Vector Icons : http://www.onlinewebfonts.com/icon </metadata>
<g><path d="M500,990c-66.1,0-130.3-13-190.8-38.5c-58.4-24.7-110.8-60-155.7-105c-45-45-80.3-97.4-105-155.7C23,630.3,10,566.1,10,500c0-66.2,13-130.3,38.5-190.8c24.7-58.4,60-110.8,105-155.7c45-45,97.4-80.3,155.7-105C369.7,23,433.8,10,500,10c66.2,0,130.3,13,190.8,38.5c58.4,24.7,110.8,60,155.7,105c45,45,80.3,97.4,105,155.7C977,369.7,990,433.8,990,500c0,66.1-13,130.3-38.5,190.7c-24.7,58.4-60,110.8-105,155.7c-45,45-97.4,80.3-155.7,105C630.3,977,566.2,990,500,990z M500,52.3c-60.5,0-119.1,11.8-174.3,35.2c-53.3,22.5-101.2,54.8-142.3,95.9c-41.1,41.1-73.4,89-95.9,142.3C64.1,380.9,52.3,439.5,52.3,500c0,60.4,11.8,119.1,35.2,174.3c22.5,53.3,54.8,101.2,95.9,142.3c41.1,41.1,89,73.4,142.3,96c55.2,23.3,113.8,35.2,174.3,35.2c60.5,0,119.1-11.8,174.3-35.2c53.3-22.5,101.2-54.8,142.3-96c41.1-41.1,73.4-89,95.9-142.3c23.3-55.2,35.2-113.8,35.2-174.3c0-60.5-11.8-119.1-35.2-174.3c-22.5-53.3-54.8-101.2-95.9-142.3c-41.1-41.1-89-73.4-142.3-95.9C619.1,64.1,560.5,52.3,500,52.3z"/><path d="M700,300H300c-36.8,0-66.7,29.8-66.7,66.7v266.6c0,36.8,29.8,66.7,66.7,66.7H700c36.8,0,66.7-29.8,66.7-66.7V366.7C766.6,329.9,736.8,300,700,300z M700,333.4c5.8,0,11.2,1.5,15.9,4.1L500,530.1L284.1,337.4c4.7-2.6,10.1-4,15.9-4L700,333.4L700,333.4z M733.3,633.3c0,18.4-15,33.3-33.3,33.3H300c-18.4,0-33.3-14.9-33.3-33.3V366.7c0-0.1,0-0.2,0-0.3L500,574.7l233.2-208.2c0,0.1,0,0.2,0,0.2V633.3L733.3,633.3z"/></g>
</svg>