<?xml version="1.0" encoding="UTF-8"?>
<!DOCTYPE svg PUBLIC "-//W3C//DTD SVG 1.1//EN" "http://www.w3.org/Graphics/SVG/1.1/DTD/svg11.dtd">
<!-- Creator: CorelDRAW X7 -->
<svg xmlns="http://www.w3.org/2000/svg" xml:space="preserve" width="210mm" height="297mm" version="1.1" style="shape-rendering:geometricPrecision; text-rendering:geometricPrecision; image-rendering:optimizeQuality; fill-rule:evenodd; clip-rule:evenodd"
viewBox="0 0 21000 29700"
 xmlns:xlink="http://www.w3.org/1999/xlink"
 enable-background="new 0 0 1000 1000">
 <defs>
  <style type="text/css">
   <![CDATA[
    .fil0 {fill:white}
   ]]>
  </style>
 </defs>
 <g id="Camada_x0020_1">
  <metadata id="CorelCorpID_0Corel-Layer"/>
  <g id="_1845603505936">
   <path class="fil0" d="M10500 25140c-1388,0 -2736,-273 -4007,-808 -1226,-519 -2327,-1260 -3269,-2205 -945,-945 -1687,-2046 -2205,-3270 -536,-1271 -809,-2619 -809,-4007 0,-1390 273,-2736 809,-4007 518,-1226 1260,-2327 2205,-3269 945,-945 2045,-1687 3269,-2205 1271,-536 2617,-809 4007,-809 1390,0 2736,273 4007,809 1226,518 2327,1260 3270,2205 945,945 1686,2045 2205,3269 535,1271 808,2617 808,4007 0,1388 -273,2736 -808,4005 -519,1226 -1260,2327 -2205,3269 -945,945 -2046,1687 -3270,2205 -1271,538 -2617,811 -4007,811zm0 -19692c-1270,0 -2501,248 -3660,740 -1120,472 -2125,1150 -2989,2013 -863,864 -1541,1869 -2013,2989 -492,1159 -740,2390 -740,3660 0,1268 248,2501 740,3660 472,1120 1150,2126 2013,2989 864,863 1869,1541 2989,2016 1159,489 2390,739 3660,739 1271,0 2501,-248 3660,-739 1120,-473 2126,-1151 2989,-2016 863,-863 1541,-1869 2014,-2989 489,-1159 739,-2389 739,-3660 0,-1270 -248,-2501 -739,-3660 -473,-1120 -1151,-2125 -2014,-2989 -863,-863 -1869,-1541 -2989,-2013 -1159,-492 -2389,-740 -3660,-740z"/>
   <path class="fil0" d="M14700 10650l-8400 0c-773,0 -1401,626 -1401,1401l0 5598c0,773 626,1401 1401,1401l8400 0c773,0 1401,-626 1401,-1401l0 -5598c-2,-773 -628,-1401 -1401,-1401zm0 701c122,0 235,32 334,87l-4534 4044 -4534 -4047c99,-54 212,-84 334,-84l8400 0 0 0zm699 6298c0,387 -315,700 -699,700l-8400 0c-386,0 -699,-313 -699,-700l0 -5598c0,-2 0,-4 0,-7l4899 4375 4897 -4372c0,2 0,4 0,4l0 5598 2 0z"/>
  </g>
 </g>
</svg>
